<?xml version="1.0" standalone="no"?>
<!DOCTYPE svg PUBLIC "-//W3C//DTD SVG 20010904//EN"
 "http://www.w3.org/TR/2001/REC-SVG-20010904/DTD/svg10.dtd">
<svg version="1.0" xmlns="http://www.w3.org/2000/svg"
 width="590.000000pt" height="200.000000pt" viewBox="0 0 590.000000 200.000000"
 preserveAspectRatio="xMidYMid meet">
<metadata>
Created by potrace 1.16, written by Peter Selinger 2001-2019
</metadata>
<g transform="translate(0.000000,200.000000) scale(0.100000,-0.100000)"
fill="#000000" stroke="none">
<path d="M399 1931 c-64 -25 -107 -59 -136 -108 l-25 -42 1 -632 c1 -701 -2
-668 69 -730 20 -18 56 -41 81 -53 l46 -21 2465 -3 c1770 -2 2484 1 2532 8
116 20 197 89 218 186 7 34 10 247 8 645 l-3 594 -28 48 c-31 52 -77 88 -146
112 -39 13 -318 15 -2540 15 -2372 -1 -2498 -2 -2542 -19z m4992 -106 c58 -21
108 -61 125 -101 21 -50 21 -1112 0 -1152 -20 -38 -64 -77 -111 -99 -38 -17
-114 -18 -1797 -21 l-1758 -2 0 695 0 695 1749 0 c1539 0 1754 -2 1792 -15z
m-3912 -164 c1 -28 24 -65 116 -187 63 -83 115 -154 115 -158 0 -3 -6 -6 -14
-6 -7 0 -32 -20 -55 -45 l-42 -46 -41 36 -42 35 -40 -39 -41 -40 -112 107
-113 107 101 115 c56 63 113 138 127 165 l26 50 7 -30 c4 -16 7 -46 8 -64z
m-979 -306 l64 -65 252 0 251 0 46 36 46 36 111 -103 110 -103 0 -307 0 -308
-26 -20 c-32 -25 -55 -26 -94 -6 l-30 16 0 179 0 180 -234 0 -235 0 -75 -89
-76 -89 0 -85 c0 -101 -15 -122 -85 -122 -28 0 -50 7 -64 19 -20 18 -21 29
-21 216 l0 198 30 12 c17 7 30 18 30 24 0 7 -13 50 -29 97 l-28 85 27 39 28
40 -64 67 c-65 67 -74 84 -52 106 25 25 54 11 118 -53z"/>
<path d="M3873 1622 c-51 -8 -53 -21 -53 -378 l0 -333 26 -20 c33 -26 55 -26
85 -2 23 18 24 26 29 186 l5 167 29 25 c24 20 36 24 65 19 19 -3 44 -15 55
-26 19 -19 21 -35 24 -185 3 -163 4 -165 29 -185 34 -26 59 -25 88 5 25 24 25
27 25 198 0 163 -2 177 -23 218 -46 86 -175 122 -261 71 l-36 -21 0 107 c0
136 -17 165 -87 154z"/>
<path d="M3200 1547 c-33 -17 -50 -53 -50 -109 0 -46 -1 -48 -29 -48 -32 0
-61 -30 -61 -62 0 -26 36 -58 65 -58 l25 0 1 -162 c1 -90 4 -174 8 -188 9 -33
50 -55 85 -46 46 11 56 53 56 236 l0 160 28 0 c15 0 38 7 50 16 40 27 21 102
-26 105 -56 4 -54 1 -55 62 -2 51 -6 62 -30 83 -32 28 -34 28 -67 11z"/>
<path d="M2271 1400 c-18 -4 -45 -17 -59 -27 -25 -19 -25 -19 -48 4 -28 28
-64 29 -95 4 l-24 -19 0 -326 c0 -320 0 -326 22 -347 27 -27 69 -27 96 0 19
19 22 35 25 120 l4 99 33 -20 c77 -45 199 -14 259 65 83 109 72 299 -21 389
-21 19 -47 40 -58 46 -31 15 -96 21 -134 12z m83 -148 c59 -52 61 -169 4 -229
-44 -47 -133 -23 -159 44 -14 38 -11 121 7 154 28 55 103 71 148 31z"/>
<path d="M2757 1396 c-178 -49 -247 -297 -122 -443 88 -103 286 -113 391 -21
41 36 44 69 8 97 -24 19 -28 19 -60 6 -19 -8 -51 -22 -71 -31 -53 -23 -117
-14 -154 22 -16 15 -29 36 -29 46 0 17 12 18 163 18 113 0 167 4 175 12 20 20
14 99 -12 153 -52 113 -174 172 -289 141z m113 -121 c28 -14 60 -60 60 -85 0
-6 -40 -10 -110 -10 -60 0 -110 3 -110 6 0 25 38 79 64 90 41 17 61 17 96 -1z"/>
<path d="M3535 1401 c-78 -20 -117 -56 -136 -124 -22 -81 23 -139 146 -190 85
-35 107 -56 86 -81 -19 -23 -68 -20 -129 9 -30 14 -60 25 -68 25 -24 0 -54
-38 -54 -68 0 -83 192 -134 300 -79 66 33 93 78 87 146 -3 48 -8 59 -41 87
-20 18 -69 45 -108 61 -79 32 -100 52 -79 77 18 21 50 20 113 -5 40 -16 57
-18 75 -10 29 13 40 55 23 87 -25 46 -145 83 -215 65z"/>
<path d="M4510 1391 c-179 -63 -230 -324 -89 -458 47 -44 97 -63 169 -63 101
0 170 42 218 134 36 68 38 188 4 252 -65 126 -181 177 -302 135z m116 -126
c25 -10 40 -26 54 -57 25 -54 25 -92 1 -145 -23 -49 -45 -63 -99 -63 -116 0
-140 211 -31 267 30 16 33 16 75 -2z"/>
<path d="M5122 1400 c-18 -4 -44 -18 -57 -30 l-25 -23 -21 26 c-25 33 -70 36
-99 7 -19 -19 -20 -33 -20 -348 0 -301 2 -330 18 -345 22 -19 40 -23 73 -14
37 10 49 46 49 147 l0 90 33 -20 c43 -27 134 -27 185 -1 87 45 135 134 135
249 0 138 -84 251 -198 265 -22 3 -55 2 -73 -3z m92 -160 c22 -21 30 -40 34
-79 6 -63 -2 -92 -34 -130 -21 -26 -33 -31 -68 -31 -31 0 -48 6 -64 23 -65 69
-52 210 22 243 40 18 74 10 110 -26z"/>
</g>
</svg>
