<?xml version="1.0" standalone="no"?>
<!DOCTYPE svg PUBLIC "-//W3C//DTD SVG 20010904//EN"
 "http://www.w3.org/TR/2001/REC-SVG-20010904/DTD/svg10.dtd">
<svg version="1.0" xmlns="http://www.w3.org/2000/svg"
 width="416.000000pt" height="416.000000pt" viewBox="0 0 416.000000 416.000000"
 preserveAspectRatio="xMidYMid meet">

<g transform="translate(0.000000,416.000000) scale(0.100000,-0.100000)"
fill="#000000" stroke="none">
<path d="M2970 3587 c-14 -13 -31 -22 -38 -19 -6 2 -12 -4 -12 -13 0 -20 24
-8 59 29 30 32 24 34 -9 3z"/>
<path d="M1891 3566 c-22 -26 26 -161 73 -205 l22 -21 59 29 c71 34 155 105
155 132 0 24 -30 43 -99 63 -69 20 -194 21 -210 2z"/>
<path d="M2470 3445 c-13 -34 3 -75 30 -75 23 0 36 36 26 75 -4 16 -13 25 -26
25 -13 0 -24 -10 -30 -25z m30 5 c0 -5 -4 -10 -10 -10 -5 0 -10 5 -10 10 0 6
5 10 10 10 6 0 10 -4 10 -10z"/>
<path d="M2642 3438 c-24 -24 -12 -98 17 -98 40 0 56 63 25 94 -19 19 -26 20
-42 4z"/>
<path d="M2519 3163 c41 -8 73 -34 61 -48 -26 -32 -164 -43 -237 -19 -11 4 -6
-6 15 -25 39 -37 35 -52 -13 -44 l-35 6 0 -41 c0 -36 3 -41 28 -45 15 -3 48
-5 73 -5 26 0 56 -5 67 -11 15 -8 23 -7 35 7 19 21 71 118 81 152 l7 25 14
-30 c8 -16 14 -43 15 -60 0 -23 3 -27 10 -15 25 38 -4 121 -51 145 -15 8 -43
14 -61 14 -26 -1 -28 -3 -9 -6z"/>
<path d="M1510 2940 c0 -10 -8 -24 -17 -30 -16 -10 -15 -10 3 -5 13 3 24 0 27
-8 3 -9 -12 -19 -45 -31 -62 -22 -59 -28 6 -13 48 11 48 11 76 -23 l27 -33 24
32 c21 29 28 32 59 28 19 -3 44 -8 55 -11 11 -3 -1 4 -27 16 -27 12 -48 28
-48 35 0 7 3 13 8 13 4 0 8 11 8 25 2 25 1 25 -77 25 -72 0 -79 -2 -79 -20z"/>
<path d="M2415 2851 c-16 -10 -39 -29 -50 -41 l-20 -23 33 19 c30 17 82 64 71
64 -2 0 -17 -8 -34 -19z"/>
<path d="M1415 2680 c-3 -5 1 -10 10 -10 9 0 13 -5 10 -10 -4 -6 -11 -8 -16
-4 -7 4 -9 -5 -7 -22 4 -35 37 -40 48 -9 15 40 -25 88 -45 55z"/>
<path d="M1721 2668 c-11 -30 2 -63 25 -63 27 0 28 78 1 83 -11 2 -20 -5 -26
-20z m29 -8 c0 -5 -2 -10 -4 -10 -3 0 -8 5 -11 10 -3 6 -1 10 4 10 6 0 11 -4
11 -10z"/>
<path d="M1998 2663 c-34 -5 -34 -10 -5 -41 l22 -24 -27 -23 -28 -24 30 -3
c30 -3 30 -3 -25 -43 -122 -88 -236 -128 -370 -128 -70 0 -161 16 -217 38 -31
12 -20 -14 15 -35 54 -34 106 -44 150 -29 34 11 43 11 69 -4 24 -14 37 -15 81
-6 29 6 64 18 79 25 38 19 38 19 38 -29 0 -24 10 -70 22 -103 17 -48 22 -81
22 -174 0 -137 -20 -199 -87 -275 -28 -32 -34 -44 -19 -36 12 6 29 23 38 36
l16 25 42 -24 c73 -42 145 -60 236 -60 95 0 195 26 210 55 17 30 12 216 -5
243 -50 76 -31 348 35 501 27 62 26 69 -14 87 l-33 16 -16 -34 c-18 -38 -54
-52 -87 -34 -25 13 -60 67 -60 93 0 14 -8 17 -42 16 -24 -1 -55 -4 -70 -6z"/>
<path d="M1552 2601 c-11 -7 -9 -13 9 -30 l23 -21 21 20 c17 18 18 22 5 30
-19 12 -41 12 -58 1z"/>
<path d="M816 2497 c-31 -52 -56 -121 -56 -154 l0 -24 28 19 c32 23 102 48
155 57 20 3 37 8 37 11 0 31 -96 134 -125 134 -8 0 -25 -19 -39 -43z"/>
<path d="M1317 2313 c-12 -21 -47 -148 -47 -172 1 -14 12 16 25 66 13 51 27
97 30 103 3 5 4 10 1 10 -3 0 -7 -3 -9 -7z"/>
<path d="M1568 2283 c7 -3 16 -2 19 1 4 3 -2 6 -13 5 -11 0 -14 -3 -6 -6z"/>
<path d="M1572 2250 c0 -14 2 -19 5 -12 2 6 2 18 0 25 -3 6 -5 1 -5 -13z"/>
<path d="M1135 2159 c-27 -23 -51 -42 -52 -43 -8 -8 71 -85 107 -105 l43 -24
-7 24 c-3 13 -12 61 -18 107 -6 45 -14 82 -17 82 -3 -1 -28 -19 -56 -41z"/>
<path d="M851 2156 l-34 -12 29 -18 c16 -10 41 -29 55 -43 l26 -24 14 23 c15
23 39 75 39 83 0 10 -96 3 -129 -9z"/>
<path d="M1322 2000 c0 -19 2 -27 5 -17 2 9 2 25 0 35 -3 9 -5 1 -5 -18z"/>
<path d="M1334 1928 c3 -14 9 -34 13 -44 5 -14 3 -16 -13 -10 -25 11 -143 24
-146 17 -2 -4 -19 -14 -38 -24 -19 -10 -26 -15 -15 -11 92 31 178 25 222 -16
23 -21 73 -163 73 -207 0 -55 -121 -177 -221 -222 -24 -12 -38 -21 -31 -21 7
0 22 4 32 10 13 7 24 4 44 -11 14 -11 26 -16 26 -11 0 5 -10 16 -22 25 l-23
15 28 7 c15 4 27 11 27 16 0 16 27 9 46 -12 16 -18 27 -20 73 -16 29 3 55 8
58 11 15 14 -19 221 -51 313 -38 109 -90 232 -82 191z"/>
<path d="M793 1880 c11 -30 11 -30 23 -8 14 27 10 38 -16 38 -16 0 -17 -3 -7
-30z"/>
<path d="M849 1790 c-13 -38 -20 -72 -17 -75 12 -12 90 17 121 45 l32 29 -25
9 c-14 6 -36 22 -49 36 -14 14 -28 26 -32 26 -4 0 -18 -31 -30 -70z"/>
<path d="M1300 1426 c0 -2 8 -10 18 -17 15 -13 16 -12 3 4 -13 16 -21 21 -21
13z"/>
<path d="M1678 1423 c7 -3 16 -2 19 1 4 3 -2 6 -13 5 -11 0 -14 -3 -6 -6z"/>
<path d="M1810 1426 c0 -2 8 -10 18 -17 15 -13 16 -12 3 4 -13 16 -21 21 -21
13z"/>
<path d="M1777 1401 c12 -11 24 -30 28 -41 4 -12 9 -19 12 -17 8 9 -26 64 -44
71 -14 6 -14 3 4 -13z"/>
<path d="M1753 1114 c-14 -15 -33 -24 -53 -24 -29 0 -31 -2 -28 -32 3 -29 7
-33 35 -36 45 -4 73 26 73 78 0 22 -1 40 -2 39 -2 -1 -13 -12 -25 -25z"/>
<path d="M2060 1107 c0 -21 12 -61 26 -85 0 -1 10 1 20 5 18 8 18 11 -13 57
-29 43 -33 45 -33 23z"/>
<path d="M1273 1100 c4 -14 7 -33 7 -43 0 -10 4 -16 8 -13 5 3 15 -6 22 -19
15 -28 41 -39 70 -30 16 5 20 15 20 46 0 36 -2 39 -19 29 -32 -17 -51 -12 -84
23 -29 30 -30 31 -24 7z"/>
<path d="M883 848 c-13 -29 -65 -72 -101 -83 -20 -6 -22 -11 -16 -38 3 -18 8
-34 11 -37 8 -9 92 43 108 67 10 15 15 40 13 71 -3 45 -3 45 -15 20z"/>
<path d="M3804 799 c-26 -28 -61 -45 -111 -54 -40 -6 -43 -9 -43 -37 0 -30 1
-30 36 -25 47 8 93 44 122 96 26 46 25 52 -4 20z"/>
<path d="M2450 755 c-34 -41 -92 -59 -201 -63 -117 -5 -167 9 -187 51 -9 19
-10 17 -6 -13 13 -85 42 -102 172 -104 108 -1 162 15 207 60 30 30 35 32 35
15 0 -38 23 -70 56 -81 41 -14 142 -3 165 17 15 13 20 11 44 -13 25 -25 30
-26 103 -22 67 5 78 8 99 32 13 15 23 37 23 49 0 17 5 13 25 -20 39 -65 85
-88 177 -88 69 0 80 3 119 30 24 17 54 46 67 65 l24 35 -7 -57 c-4 -34 -2 -65
4 -76 14 -26 62 -42 128 -42 63 0 108 20 116 52 8 29 5 31 -27 18 -54 -20
-159 -6 -191 26 -9 10 -15 34 -15 67 l-1 52 -20 -28 c-12 -15 -42 -40 -67 -55
-39 -22 -58 -27 -112 -26 -80 1 -132 24 -170 75 l-27 38 -11 -24 c-19 -42 -58
-59 -133 -59 -53 0 -75 5 -96 20 -24 18 -31 18 -53 7 -34 -17 -161 -17 -185 1
-11 8 -24 28 -30 46 -10 29 -12 31 -25 15z"/>
<path d="M1348 713 c-12 -51 -41 -62 -204 -80 -136 -15 -151 -15 -176 0 -37
21 -38 1 -2 -42 23 -27 32 -31 77 -31 82 1 260 25 284 38 24 13 37 58 31 113
l-3 34 -7 -32z"/>
<path d="M1678 718 c-38 -58 -216 -75 -250 -24 -5 7 -8 4 -8 -7 0 -32 30 -77
56 -83 32 -8 150 3 175 17 26 13 51 65 47 97 l-3 26 -17 -26z"/>
<path d="M747 609 c-32 -32 -113 -54 -171 -47 -41 5 -41 6 -21 -31 18 -35 44
-43 107 -31 91 18 128 47 128 102 0 44 -5 45 -43 7z"/>
</g>
</svg>
